<?xml version="1.0" encoding="utf-8"?>
<!-- Generator: Adobe Illustrator 23.0.1, SVG Export Plug-In . SVG Version: 6.00 Build 0)  -->
<svg version="1.1" id="Layer_1"
	xmlns="http://www.w3.org/2000/svg"
	xmlns:xlink="http://www.w3.org/1999/xlink" x="0px" y="0px" viewBox="0 0 1009.5 693.1" style="enable-background:new 0 0 1009.5 693.1;" xml:space="preserve">
	<style type="text/css">
	.st0{opacity:0.1;fill:#00875F;enable-background:new    ;}
	.st1{fill:#00875F;}
	.st2{fill:#E6E6E6;}
	.st3{opacity:0.2;enable-background:new    ;}
	.st4{fill:#FFFFFF;}
	.st5{fill:#FFB8B8;}
	.st6{fill:#575A89;}
	.st7{fill:#2F2E41;}
	</style>
	<title>empty</title>
	<path class="st0" d="M586.6,111.4c-64.7-2.2-126.4-23.1-185.2-46S284.2,17.2,221,5.1C180.4-2.7,133.9-3.8,101.2,18
	C69.7,39,59.5,75.1,54,108.7c-4.1,25.3-6.5,51.8,4.7,75.5c7.8,16.4,21.7,30.2,31.4,46c33.5,54.7,9.8,122.2-26.4,175.6
	c-17,25.1-36.8,49-49.9,75.6C0.6,508.1-5.4,538.7,6.1,566c11.4,27,38.5,47.2,67.9,61.5c59.7,29,130,37.2,198.6,41.9
	c151.8,10.4,304.5,5.9,456.7,1.4c56.3-1.7,112.9-3.3,168.3-12.1c30.8-4.8,62.6-12.5,84.9-31.1c28.4-23.5,35.4-63.4,16.4-92.9
	c-31.9-49.5-120-61.8-142.3-114.9c-12.3-29.2,0.3-61.8,18.2-88.9c38.2-58.2,102.3-109.2,105.7-175.7c2.3-45.7-28.5-91.4-76.1-113
	c-49.9-22.7-119.2-19.8-156,17.7C710.4,98.5,643.7,113.4,586.6,111.4z"/>
	<g>
		<path class="st1" d="M653.8,112.4c0,0-38-2.3-33.6,24.4c0,0-0.9,4.7,3.4,6.9c0,0,0.1-2,3.9-1.3c1.4,0.2,2.8,0.3,4.1,0.2
		c1.9-0.1,3.6-0.9,5.1-2.1l0,0c0,0,10.7-4.4,14.8-21.9c0,0,3.1-3.8,3-4.8l-6.4,2.8c0,0,2.2,4.6,0.5,8.5c0,0-0.2-8.3-1.4-8.1
		c-0.2,0-3.3,1.6-3.3,1.6s3.8,8.1,0.9,13.9c0,0,1.1-9.9-2.1-13.3l-4.5,2.6c0,0,4.4,8.3,1.4,15.1c0,0,0.8-10.4-2.4-14.5l-4.1,3.2
		c0,0,4.2,8.2,1.6,13.9c0,0-0.3-12.1-2.5-13.1c0,0-3.6,3.2-4.1,4.5c0,0,2.8,6,1.1,9.1c0,0-1.1-8.1-2-8.1c0,0-3.6,5.4-3.9,9
		c0.2-3.4,1.2-6.7,3.1-9.5c-2.1,0.4-4,1.4-5.5,2.8c0,0,0.5-3.8,6.3-4.1c0,0,3-4.1,3.7-4.3c0,0-5.8-0.5-9.2,1.1c0,0,3.1-3.6,10.3-2
		l4-3.3c0,0-7.6-1-10.8,0.1c0,0,3.7-3.2,11.9-0.9l4.4-2.6c0,0-6.5-1.4-10.3-0.9c0,0,4.1-2.2,11.6,0.2l3.2-1.4c0,0-4.7-0.9-6.1-1.1
		s-1.5-0.5-1.5-0.5c3-0.5,6.1-0.2,8.9,1C647.2,115.2,653.9,112.8,653.8,112.4z"/>
		<path class="st0" d="M769.2,245.7c0,0-38-2.3-33.6,24.4c0,0-0.9,4.7,3.4,6.9c0,0,0.1-2,3.9-1.3c1.4,0.2,2.8,0.3,4.1,0.2
		c1.8-0.1,3.6-0.9,5-2.1l0,0c0,0,10.7-4.4,14.9-21.9c0,0,3.1-3.8,3-4.8l-6.4,2.7c0,0,2.2,4.6,0.5,8.5c0,0-0.2-8.3-1.4-8.1
		c-0.2,0-3.3,1.6-3.3,1.6s3.8,8.1,0.9,13.9c0,0,1.1-9.9-2.1-13.4l-4.5,2.6c0,0,4.4,8.3,1.4,15.1c0,0,0.8-10.4-2.4-14.5l-4.1,3.2
		c0,0,4.1,8.2,1.6,13.9c0,0-0.3-12.1-2.5-13.1c0,0-3.6,3.2-4.1,4.5c0,0,2.8,6,1.1,9.1c0,0-1.1-8.1-2-8.1c0,0-3.6,5.4-3.9,9
		c0.2-3.4,1.2-6.7,3.1-9.5c-2.1,0.4-4,1.4-5.5,2.8c0,0,0.6-3.8,6.3-4.1c0,0,3-4.1,3.7-4.3c0,0-5.8-0.5-9.2,1.1c0,0,3.1-3.6,10.3-2
		l4-3.3c0,0-7.6-1-10.8,0.1c0,0,3.7-3.2,11.9-0.9l4.4-2.6c0,0-6.5-1.4-10.3-0.9c0,0,4.1-2.2,11.6,0.2l3.2-1.4c0,0-4.7-0.9-6.1-1.1
		s-1.5-0.5-1.5-0.5c3-0.5,6.1-0.2,8.9,1C762.6,248.6,769.4,246.1,769.2,245.7z"/>
		<path class="st0" d="M538.4,222.1c0,0,8.8-37.1-18.3-37.2c0,0-4.5-1.7-7.3,2.2c0,0,1.9,0.4,0.6,4.1c-0.5,1.3-0.8,2.6-0.9,4
		c-0.2,1.9,0.2,3.7,1.2,5.3l0,0c0,0,2.5,11.3,19,18.4c0,0,3.2,3.7,4.2,3.7l-1.6-6.8c0,0-4.9,1.4-8.4-1c0,0,8.2,1.2,8.2,0
		c0-0.2-1-3.6-1-3.6s-8.6,2.3-13.9-1.5c0,0,9.6,2.8,13.5,0.2l-1.8-4.9c0,0-9,2.9-15.2-1.2c0,0,10.2,2.5,14.7,0.1l-2.5-4.6
		c0,0-8.8,2.7-13.9-0.8c0,0,12,1.7,13.3-0.2c0,0-2.5-4.1-3.7-4.8c0,0-6.4,1.8-9.2-0.5c0,0,8.2,0.3,8.3-0.6c0,0-4.7-4.4-8.2-5.4
		c3.3,0.8,6.4,2.4,8.9,4.7c0-2.1-0.7-4.1-1.9-5.9c0,0,3.6,1.2,3,7c0,0,3.5,3.6,3.6,4.4c0,0,1.5-5.6,0.5-9.3c0,0,3,3.6,0.2,10.5
		l2.6,4.6c0,0,2.3-7.3,1.7-10.7c0,0,2.5,4.2-1.2,11.9l1.8,4.8c0,0,2.5-6.1,2.6-10c0,0,1.5,4.4-2.2,11.4l0.9,3.3c0,0,1.7-4.5,2.1-5.9
		s0.8-1.4,0.8-1.4c0,3-0.9,6-2.5,8.6C536.6,215.1,538,222.1,538.4,222.1z"/>
		<path class="st0" d="M455.2,234.7c0,0-30.5-22.8-41.4,1.9c0,0-3.3,3.5-0.9,7.6c0,0,1.1-1.6,4,1.1c1,0.9,2.1,1.8,3.3,2.4
		c1.6,0.9,3.5,1.3,5.4,1l0,0c0,0,11.4,2.2,24.4-10.1c0,0,4.7-1.5,5.1-2.4l-6.9-1.2c0,0-0.7,5.1-4.3,7.3c0,0,4.4-7.1,3.2-7.6
		c-0.2-0.1-3.7-0.5-3.7-0.5s-1.3,8.8-6.9,12.1c0,0,6.4-7.7,5.6-12.3l-5.2-0.3c0,0-0.9,9.4-7.1,13.4c0,0,6.4-8.3,6-13.4l-5.2,0.4
		c0,0-1,9.1-6.3,12.5c0,0,6.4-10.3,5.1-12.3c0,0-4.7,0.7-5.9,1.5c0,0-0.9,6.5-4.1,8.2c0,0,3.5-7.4,2.8-7.9c0,0-5.9,2.5-8.3,5.4
		c2-2.7,4.7-4.9,7.8-6.3c-1.9-0.8-4.1-1-6.1-0.6c0,0,2.5-2.9,7.6,0c0,0,4.7-1.8,5.5-1.5c0,0-4.5-3.6-8.3-4.2c0,0,4.5-1.3,9.7,4
		l5.2-0.5c0,0-5.8-5-9.1-5.8c0,0,4.8-0.6,10.4,5.8l5.1,0.2c0,0-4.6-4.7-8.1-6.4c0,0,4.6,0.4,9.6,6.5l3.4,0.5c0,0-3.5-3.4-4.5-4.3
		s-0.9-1.2-0.9-1.2c2.8,1.2,5.2,3.2,6.9,5.7C448.1,233.5,455,235.1,455.2,234.7z"/>
		<path class="st0" d="M556.8,22.6c0,0-30.5-22.8-41.4,1.9c0,0-3.3,3.4-0.9,7.6c0,0,1.1-1.6,4,1.1c1,0.9,2.1,1.8,3.3,2.4
		c1.6,0.9,3.5,1.3,5.4,1l0,0c0,0,11.4,2.2,24.4-10.1c0,0,4.7-1.5,5.1-2.4l-6.9-1.2c0,0-0.7,5.1-4.3,7.3c0,0,4.4-7.1,3.3-7.6
		c-0.2-0.1-3.7-0.5-3.7-0.5s-1.3,8.8-6.9,12.2c0,0,6.4-7.7,5.6-12.3l-5.2-0.3c0,0-0.9,9.4-7.1,13.4c0,0,6.4-8.3,6-13.4l-5.2,0.4
		c0,0-1.1,9.1-6.3,12.5c0,0,6.4-10.3,5.1-12.3c0,0-4.7,0.7-5.9,1.4c0,0-0.9,6.5-4.1,8.2c0,0,3.5-7.3,2.8-7.9c0,0-5.9,2.5-8.3,5.4
		c2-2.7,4.7-4.9,7.8-6.3c-1.9-0.8-4.1-1-6.1-0.6c0,0,2.5-2.9,7.6,0.1c0,0,4.7-1.8,5.5-1.6c0,0-4.5-3.6-8.3-4.2c0,0,4.5-1.3,9.7,4
		l5.2-0.5c0,0-5.8-5-9.1-5.8c0,0,4.8-0.6,10.4,5.8l5.1,0.2c0,0-4.6-4.7-8.1-6.4c0,0,4.6,0.4,9.6,6.5l3.4,0.6c0,0-3.5-3.3-4.5-4.2
		s-0.9-1.2-0.9-1.2c2.8,1.2,5.2,3.2,6.9,5.7C549.7,21.4,556.6,23,556.8,22.6z"/>
		<path class="st0" d="M673.4,51.5c0,0-12.2-36.1-35.2-21.9c0,0-4.7,1-5.1,5.7c0,0,1.8-0.7,2.7,3.1c0.3,1.4,0.8,2.7,1.4,3.9
		c0.8,1.7,2.2,3,3.8,3.9l0,0c0,0,8.1,8.2,25.9,5.5c0,0,4.7,1.4,5.5,0.9l-5-4.9c0,0-3.5,3.8-7.7,3.6c0,0,7.6-3.3,7-4.4
		c-0.1-0.2-2.7-2.5-2.7-2.5s-6.1,6.5-12.6,6.1c0,0,9.6-2.7,11.6-7l-4.1-3.2c0,0-6.1,7.2-13.5,7c0,0,10-3.2,12.5-7.7l-4.5-2.6
		c0,0-6,6.9-12.2,6.7c0,0,11.1-4.9,11.2-7.2c0,0-4.3-2.1-5.7-2.2c0,0-4.5,4.9-8,4.4c0,0,7.1-4.1,6.8-4.9c0,0-6.3-1.3-9.8-0.2
		c3.2-1.1,6.7-1.4,10-0.8c-1.1-1.8-2.8-3.2-4.7-4c0,0,3.7-0.9,6.2,4.3c0,0,4.9,1.2,5.4,1.8c0,0-1.7-5.5-4.5-8.2c0,0,4.5,1.5,5.7,8.8
		l4.6,2.5c0,0-1.9-7.4-4.2-10c0,0,4.3,2.2,5.3,10.7l4.1,3.1c0,0-1.1-6.5-3.1-9.9c0,0,3.6,2.9,4.2,10.8l2.5,2.4c0,0-0.9-4.7-1.3-6.1
		s-0.1-1.4-0.1-1.4c1.6,2.6,2.4,5.6,2.4,8.6C668.2,46.6,673,51.8,673.4,51.5z"/>
		<path class="st0" d="M593.8,53.3c0,0-37.9-4.2-34.8,22.7c0,0-1.1,4.7,3,7c0,0,0.2-2,4-1.1c1.4,0.3,2.7,0.4,4.1,0.4
		c1.9,0,3.7-0.7,5.2-1.8l0,0c0,0,10.9-3.9,16-21.1c0,0,3.3-3.7,3.2-4.6l-6.5,2.4c0,0,2,4.7,0,8.5c0,0,0.2-8.3-1-8.2
		c-0.2,0-3.4,1.4-3.4,1.4s3.4,8.3,0.2,14c0,0,1.6-9.9-1.4-13.4l-4.7,2.4c0,0,4,8.6,0.7,15.2c0,0,1.3-10.4-1.6-14.6l-4.2,3
		c0,0,3.7,8.4,0.9,13.9c0,0,0.3-12.1-1.8-13.2c0,0-3.7,3-4.3,4.2c0,0,2.5,6.1,0.6,9.2c0,0-0.7-8.1-1.5-8.2c0,0-3.8,5.2-4.4,8.8
		c0.3-3.4,1.6-6.6,3.6-9.4c-2.1,0.3-4,1.2-5.6,2.5c0,0,0.7-3.8,6.5-3.8c0,0,3.2-3.9,4-4.1c0,0-5.7-0.8-9.3,0.6c0,0,3.2-3.4,10.4-1.4
		l4.2-3.1c0,0-7.6-1.5-10.8-0.5c0,0,3.9-3,11.9-0.2l4.5-2.4c0,0-6.4-1.7-10.3-1.4c0,0,4.2-2,11.6,0.8l3.2-1.2c0,0-4.7-1.2-6.1-1.4
		s-1.4-0.6-1.4-0.6c3-0.3,6.1,0.2,8.8,1.4C587.1,55.9,593.8,53.7,593.8,53.3z"/>
		<path class="st0" d="M925.4,347.5c0,0-37.9-4.2-34.8,22.6c0,0-1.1,4.7,3,7c0,0,0.2-2,4-1.1c1.4,0.3,2.7,0.4,4.1,0.4
		c1.9,0,3.7-0.7,5.2-1.8l0,0c0,0,10.9-3.9,16-21.1c0,0,3.3-3.7,3.2-4.6l-6.5,2.4c0,0,2,4.7,0,8.5c0,0,0.2-8.3-1-8.2
		c-0.2,0-3.4,1.4-3.4,1.4s3.4,8.2,0.2,14c0,0,1.6-9.9-1.4-13.4l-4.7,2.4c0,0,4,8.5,0.7,15.2c0,0,1.3-10.4-1.6-14.6l-4.2,3
		c0,0,3.7,8.4,0.9,13.9c0,0,0.3-12.1-1.8-13.2c0,0-3.7,3-4.3,4.2c0,0,2.5,6.1,0.6,9.1c0,0-0.7-8.1-1.5-8.2c0,0-3.8,5.2-4.4,8.8
		c0.3-3.4,1.6-6.6,3.6-9.4c-2.1,0.3-4,1.2-5.6,2.5c0,0,0.7-3.8,6.5-3.8c0,0,3.2-3.9,4-4.1c0,0-5.7-0.8-9.3,0.6c0,0,3.2-3.4,10.4-1.4
		l4.2-3.1c0,0-7.5-1.4-10.8-0.4c0,0,3.9-3,11.9-0.3l4.5-2.4c0,0-6.4-1.7-10.3-1.4c0,0,4.2-2,11.6,0.8l3.2-1.3c0,0-4.7-1.2-6.1-1.4
		s-1.4-0.6-1.4-0.6c3-0.4,6.1,0.1,8.8,1.4C918.7,350.1,925.5,347.9,925.4,347.5z"/>
		<path class="st0" d="M983.3,382.8c0,0-37.9-4.2-34.8,22.6c0,0-1.1,4.7,3,7c0,0,0.2-2,4-1.1c1.3,0.3,2.7,0.4,4.1,0.4
		c1.9,0,3.7-0.7,5.1-1.8l0,0c0,0,10.9-3.9,15.9-21.1c0,0,3.3-3.6,3.2-4.6l-6.6,2.4c0,0,2,4.7,0,8.5c0,0,0.2-8.3-1-8.2
		c-0.2,0-3.4,1.4-3.4,1.4s3.4,8.2,0.2,14c0,0,1.6-9.9-1.4-13.4l-4.7,2.4c0,0,4,8.5,0.7,15.2c0,0,1.3-10.4-1.6-14.6l-4.2,3
		c0,0,3.7,8.4,0.9,13.9c0,0,0.3-12.1-1.8-13.2c0,0-3.7,3-4.3,4.2c0,0,2.5,6.1,0.6,9.1c0,0-0.7-8.1-1.6-8.2c0,0-3.8,5.2-4.4,8.8
		c0.3-3.4,1.6-6.6,3.6-9.4c-2.1,0.3-4,1.2-5.6,2.5c0,0,0.8-3.8,6.6-3.8c0,0,3.2-3.9,4-4.1c0,0-5.7-0.8-9.3,0.6c0,0,3.2-3.4,10.4-1.4
		l4.2-3.1c0,0-7.5-1.4-10.8-0.4c0,0,3.9-3,11.9-0.2l4.5-2.4c0,0-6.4-1.7-10.3-1.4c0,0,4.2-2,11.6,0.8l3.2-1.2c0,0-4.7-1.2-6.1-1.4
		s-1.4-0.6-1.4-0.6c3-0.3,6.1,0.2,8.8,1.4C976.6,385.5,983.4,383.3,983.3,382.8z"/>
		<path class="st0" d="M854.7,84.8c0,0-30.5-22.8-41.4,1.9c0,0-3.3,3.4-0.9,7.6c0,0,1.1-1.6,4,1.1c1,0.9,2.1,1.8,3.3,2.4
		c1.6,0.9,3.5,1.3,5.4,1l0,0c0,0,11.4,2.2,24.5-10.1c0,0,4.7-1.5,5.1-2.4l-6.9-1.2c0,0-0.7,5.1-4.3,7.3c0,0,4.4-7.1,3.2-7.6
		c-0.2-0.1-3.7-0.5-3.7-0.5s-1.3,8.8-6.9,12.1c0,0,6.4-7.7,5.6-12.3l-5.2-0.3c0,0-0.9,9.4-7.1,13.4c0,0,6.4-8.3,6-13.4l-5.2,0.4
		c0,0-1,9.1-6.3,12.4c0,0,6.4-10.3,5.1-12.3c0,0-4.7,0.7-5.9,1.4c0,0-0.9,6.5-4.1,8.2c0,0,3.5-7.4,2.8-7.9c0,0-5.9,2.5-8.3,5.4
		c2-2.7,4.7-4.9,7.8-6.3c-1.9-0.8-4.1-1-6.1-0.6c0,0,2.5-2.9,7.6,0.1c0,0,4.7-1.8,5.5-1.6c0,0-4.5-3.6-8.3-4.2c0,0,4.5-1.3,9.7,4
		l5.2-0.5c0,0-5.8-5-9.1-5.8c0,0,4.8-0.6,10.4,5.8l5.1,0.2c0,0-4.6-4.7-8.1-6.4c0,0,4.6,0.4,9.6,6.5l3.4,0.6c0,0-3.5-3.4-4.5-4.3
		s-0.9-1.2-0.9-1.2c2.8,1.2,5.2,3.2,6.9,5.7C847.7,83.7,854.6,85.2,854.7,84.8z"/>
		<path class="st0" d="M878.3,249.7c0,0-10.5-36.6-34.2-23.5c0,0-4.7,0.7-5.3,5.5c0,0,1.9-0.6,2.5,3.2c0.2,1.4,0.6,2.7,1.2,4
		c0.7,1.7,2,3.2,3.7,4.1l0,0c0,0,7.7,8.6,25.6,6.7c0,0,4.6,1.6,5.5,1.2l-4.7-5.1c0,0-3.6,3.6-7.8,3.3c0,0,7.8-3,7.2-4.1
		c-0.1-0.2-2.6-2.6-2.6-2.6s-6.3,6.3-12.8,5.5c0,0,9.7-2.3,11.9-6.4l-4-3.4c0,0-6.4,6.9-13.8,6.4c0,0,10.1-2.8,12.9-7.1l-4.4-2.8
		c0,0-6.3,6.6-12.5,6.1c0,0,11.3-4.4,11.5-6.7c0,0-4.2-2.3-5.6-2.4c0,0-4.7,4.7-8.2,4.1c0,0,7.3-3.7,7-4.6c0,0-6.2-1.6-9.8-0.7
		c3.3-1,6.7-1.1,10-0.3c-1.1-1.8-2.6-3.3-4.5-4.2c0,0,3.8-0.8,6,4.6c0,0,4.8,1.4,5.3,2.1c0,0-1.5-5.6-4.1-8.4c0,0,4.4,1.7,5.3,9.1
		l4.5,2.7c0,0-1.6-7.5-3.7-10.1c0,0,4.2,2.4,4.8,10.9l4,3.3c0,0-0.8-6.6-2.6-10c0,0,3.4,3.1,3.7,11l2.4,2.5c0,0-0.7-4.8-1-6.1
		s0-1.5,0-1.5c1.5,2.7,2.2,5.7,2,8.7C873.4,244.5,877.9,249.9,878.3,249.7z"/>
		<path class="st0" d="M643.9,332.2c0,0-20.4-32.2-39.4-12.9c0,0-4.3,2-3.6,6.8c0,0,1.7-1.1,3.3,2.4c0.6,1.2,1.4,2.4,2.3,3.5
		c1.2,1.4,2.8,2.5,4.7,2.9l0,0c0,0,9.8,6.1,26.5-0.8c0,0,4.9,0.3,5.6-0.4l-6-3.6c0,0-2.5,4.5-6.6,5.4c0,0,6.6-5,5.7-5.9
		c-0.2-0.2-3.2-1.8-3.2-1.8s-4.3,7.8-10.8,8.9c0,0,8.7-5,9.6-9.5l-4.8-2.1c0,0-4.2,8.5-11.4,10c0,0,8.9-5.5,10.3-10.4l-5-1.4
		c0,0-4.2,8.2-10.3,9.4c0,0,9.6-7.4,9.1-9.7c0,0-4.7-1-6-0.7c0,0-3.2,5.8-6.8,6.2c0,0,5.9-5.6,5.4-6.4c0,0-6.4,0.2-9.6,2.1
		c2.9-1.8,6.1-2.9,9.5-3.1c-1.5-1.4-3.4-2.4-5.5-2.8c0,0,3.4-1.8,7,2.7c0,0,5,0,5.7,0.5c0,0-3-5-6.3-6.9c0,0,4.7,0.4,7.6,7.2l5,1.3
		c0,0-3.6-6.8-6.4-8.7c0,0,4.7,1.1,7.7,9.1l4.7,2c0,0-2.7-6-5.3-8.9c0,0,4.2,2,6.7,9.5l3,1.7c0,0-2-4.4-2.7-5.6s-0.4-1.5-0.4-1.5
		c2.2,2.1,3.7,4.8,4.4,7.8C637.6,328.6,643.6,332.5,643.9,332.2z"/>
		<path class="st1" d="M778.1,167.8c0,0-19.4-32.8-39-14.1c0,0-4.4,1.9-3.8,6.6c0,0,1.7-1.1,3.3,2.5c0.6,1.3,1.3,2.5,2.2,3.5
		c1.1,1.5,2.8,2.5,4.6,3l0,0c0,0,9.7,6.4,26.5,0c0,0,4.9,0.4,5.6-0.2l-5.9-3.8c0,0-2.6,4.4-6.8,5.1c0,0,6.8-4.8,5.9-5.7
		c-0.2-0.2-3.2-1.9-3.2-1.9s-4.6,7.6-11,8.6c0,0,8.8-4.7,9.9-9.2l-4.7-2.2c0,0-4.4,8.3-11.7,9.7c0,0,9.1-5.2,10.7-10.1l-4.9-1.6
		c0,0-4.5,8-10.6,9.1c0,0,9.9-7.1,9.4-9.4c0,0-4.6-1.2-6-0.9c0,0-3.3,5.7-6.9,6c0,0,6.1-5.4,5.6-6.2c0,0-6.4,0.1-9.7,1.8
		c2.9-1.8,6.2-2.7,9.6-2.8c-1.5-1.5-3.4-2.5-5.4-2.9c0,0,3.5-1.7,7,2.9c0,0,5,0.2,5.7,0.7c0,0-2.8-5-6.1-7.1c0,0,4.7,0.5,7.4,7.4
		l5,1.5c0,0-3.4-6.9-6.2-8.9c0,0,4.7,1.3,7.4,9.4l4.7,2.2c0,0-2.5-6.1-5-9c0,0,4.1,2.1,6.4,9.7l2.9,1.8c0,0-1.9-4.4-2.5-5.7
		s-0.4-1.5-0.4-1.5c2.1,2.2,3.5,4.9,4.2,7.9C772.1,164,777.9,168.1,778.1,167.8z"/>
		<path class="st1" d="M655.2,236.7c0,0,1-38.1-25.5-32.7c0,0-4.7-0.7-6.7,3.6c0,0,2,0,1.4,3.9c-0.2,1.4-0.2,2.8-0.1,4.1
		c0.2,1.9,1,3.6,2.2,5l0,0c0,0,4.8,10.5,22.4,14.1c0,0,3.9,3,4.9,2.8l-3-6.3c0,0-4.5,2.3-8.5,0.8c0,0,8.3-0.5,8.1-1.7
		c0-0.2-1.7-3.3-1.7-3.3s-7.9,4-13.9,1.4c0,0,10,0.8,13.3-2.5l-2.8-4.4c0,0-8.2,4.7-15.1,1.9c0,0,10.5,0.4,14.4-2.9l-3.3-4
		c0,0-8.1,4.4-13.8,2.1c0,0,12.1-0.7,13-2.9c0,0-3.3-3.5-4.6-4c0,0-5.9,3-9.1,1.4c0,0,8-1.3,8-2.2c0,0-5.5-3.4-9.2-3.6
		c3.4,0.1,6.7,1,9.7,2.8c-0.5-2-1.5-3.9-3-5.4c0,0,3.8,0.4,4.3,6.2c0,0,4.2,2.8,4.4,3.6c0,0,0.3-5.8-1.4-9.2c0,0,3.7,3,2.3,10.2
		l3.4,3.9c0,0,0.8-7.6-0.5-10.8c0,0,3.3,3.6,1.3,11.9l2.8,4.3c0,0,1.2-6.5,0.5-10.3c0,0,2.3,4,0.2,11.6l1.5,3.1c0,0,0.8-4.8,0.9-6.2
		s0.5-1.5,0.5-1.5c0.6,3,0.4,6.1-0.7,8.9C652.1,230.3,654.8,236.9,655.2,236.7z"/>
	</g>
	<path class="st2" d="M365.1,361.2h-6.5c-0.5,0-0.9,0.4-0.9,0.9v2.8c0,0.5,0.4,0.9,0.9,0.9h1.1v4.3h4.3v-4.3h1.1
	c0.5,0,0.9-0.4,0.9-0.9V362C366,361.6,365.6,361.2,365.1,361.2z"/>
	<path class="st1" d="M371.6,387.1c-4-5.8-6-12.7-5.8-19.7c0-0.3-0.2-0.6-0.5-0.7v-1.2h-6.8v1.2h-0.1c-0.4,0-0.7,0.3-0.7,0.7
	c0,0,0,0,0,0.1c0.6,7.2-1.3,14.3-5.5,20.2c-0.2,0.3-0.4,0.8-0.3,1.2l0.7,23.1c0,1.1,0.9,1.9,2,1.9H370c1.1,0,2-0.9,2-2l0.3-22.4
	C372.3,388.6,372.1,387.8,371.6,387.1z"/>
	<path class="st3" d="M363.8,362.1c0,1-0.8,1.8-1.8,1.8s-1.8-0.8-1.8-1.8"/>
	<rect x="355.6" y="391.6" class="st4" width="13" height="8.7"/>

	<polygon class="st5" points="240.1,250.3 256.3,248.8 266.6,223.8 248.2,213.5 "/>
	<path class="st5" d="M388.8,319L388.8,319c1.9-4.7-0.4-10-5.1-11.9c-0.9-0.4-1.9-0.6-2.9-0.6l-25.2-1.5l-3.7,12.3l25.9,7.1
	C382.3,325.6,387,323.3,388.8,319z"/>
	<path class="st6" d="M361.7,324.6l-0.3-23.1l-55.9-8.9l-43-49.4c-4.6-5.3-12.5-6.4-18.4-2.5l0,0c-6.5,4.3-8.3,13-4,19.5
	c0.5,0.7,1,1.4,1.6,2l35.5,43.7L361.7,324.6z"/>
	<path class="st7" d="M227.6,584.6h14.7l36.5-165.1l37.8,51l22.1,110.4h14l-2.9-118.5l-49.3-126.6h-48.6
	c-13.3,24-23.7,48.8-11.8,74.4L227.6,584.6z"/>
	<path class="st7" d="M329.7,594.6c-0.6,2,0.5,4.2,2.5,4.8c0.2,0,0.3,0.1,0.5,0.1l36,6.4c2.9,0.5,5.8-1.2,6.7-4.1l0,0
	c0.9-2.7-0.3-5.7-2.9-7c-7.9-4.1-14.7-10-19.9-17.3c-4,3.7-8.4,3.3-13.1,0.6l-5,0.6L329.7,594.6z"/>
	<path class="st7" d="M220.8,594.6c-0.6,2,0.5,4.2,2.5,4.8c0.2,0,0.3,0.1,0.5,0.1l36,6.4c2.9,0.5,5.8-1.2,6.7-4.1l0,0
	c0.9-2.7-0.3-5.7-2.9-7c-7.9-4.1-14.7-10-19.9-17.3c-4,3.7-8.4,3.3-13.1,0.6l-5,0.6L220.8,594.6z"/>
	<circle class="st5" cx="267" cy="212.4" r="20.6"/>
	<path class="st6" d="M248.6,341.2l53.8-1.5L286.6,290c9.8-15.7-0.1-31.4-14-47.1l-11-7.4l-17.7-1.5l0,0c-7.7,8.2-11.8,19-11.7,30.2
	C232.4,288.3,236.7,314.4,248.6,341.2z"/>
	<path class="st5" d="M372.1,374.7L372.1,374.7c3.6-3.6,3.6-9.3,0-12.9c-0.7-0.7-1.5-1.3-2.4-1.7l-22.5-11.3l-8.2,9.9l21,16.7
	C363.5,378.2,368.8,377.9,372.1,374.7z"/>
	<path class="st6" d="M345,369.2l8.8-21.4L306,317.7l-20.2-62.3c-2.2-6.7-9-10.8-15.9-9.5l0,0c-7.7,1.4-12.8,8.7-11.4,16.4
	c0.1,0.8,0.4,1.6,0.7,2.4l15.5,54.1L345,369.2z"/>
	<path class="st7" d="M233.1,204.3c0,8,5.2,20.4,11.8,25.8c4.4,3.6,10.3,3.4,12.5-1.5c2.3-5,10.3-16.9,24.3-24.3
	c18.7-9.9-6.6-26.9-24.3-24.3C244.1,181.9,233.1,190.8,233.1,204.3z"/>
	<ellipse transform="matrix(0.1602 -0.9871 0.9871 0.1602 30.0642 392.3361)" class="st7" cx="245.6" cy="178.5" rx="14.7" ry="14.7"/>
	<path class="st7" d="M262.5,173.3c0-7.7-5.9-14.1-13.6-14.7c0.4,0,0.7-0.1,1.1-0.1c8.1,0,14.7,6.6,14.7,14.7s-6.6,14.7-14.7,14.7
	c-0.4,0-0.7,0-1.1-0.1C256.6,187.4,262.5,181,262.5,173.3z"/>
	<ellipse class="st5" cx="267.3" cy="215.3" rx="3.3" ry="4.4"/>
	<polygon class="st1" points="684.6,557.6 455.3,557.6 406.8,328.1 365.4,328.1 365.4,317.8 415.1,317.8 463.7,547.3 684.6,547.3 "/>
	<circle class="st1" cx="488.9" cy="577.4" r="22.1"/>
	<circle class="st1" cx="653.7" cy="577.4" r="22.1"/>
	<path class="st1" d="M680.4,552.7h-223L418,358.2h299.3c5.8,0,10.6,4.7,10.6,10.6c0,0.5,0,1.1-0.1,1.6l-36.9,173.3
	C690.1,548.9,685.6,552.7,680.4,552.7z M459.8,549.8h220.6c3.8,0,7-2.7,7.5-6.4l37-173.4c0.7-4.2-2.2-8.1-6.4-8.7
	c-0.4-0.1-0.8-0.1-1.2-0.1H421.6L459.8,549.8z"/>
	<polygon class="st1" points="500.7,552.1 474.9,359.9 477.8,359.5 503.6,551.6 "/>
	<polygon class="st1" points="644,550.6 641.1,550.1 666.1,359.5 669,359.9 "/>
	<rect x="572.8" y="359.7" class="st1" width="2.9" height="192.1"/>
	<rect x="574" y="270.6" transform="matrix(2.421337e-03 -1 1 2.421337e-03 161.056 987.4)" class="st1" width="2.9" height="284.8"/>
	<rect x="447.5" y="502.9" transform="matrix(1 -6.835543e-03 6.835543e-03 1 -3.4342 3.9259)" class="st1" width="250.2" height="2.9"/>
	<ellipse class="st1" cx="369.8" cy="321.5" rx="16.2" ry="8.8"/>
</svg>
